<svg xmlns="http://www.w3.org/2000/svg" width="260" height="320" viewBox="0 0 260 320">
  <path d="M130 16C64.486 16 12 68.486 12 134s52.486 118 118 118 118-52.486 118-118S195.514 16 130 16z" fill="#261040"/>
  <path d="M182 32c43.96 18.88 74 64.44 74 108 0 64.88-43.84 123.32-108 145.6 40.96-44.72 49.04-110.16 27.6-164.16C165.2 86.84 154.6 62.96 182 32z" fill="#3C1F6A"/>
  <path d="M144 58a24 24 0 1 1 48 0 24 24 0 1 1-48 0z" fill="#F3CEA0"/>
  <path d="M148 90c25.84 31.56 41.28 72.44 38.12 112.64-3.16 40.08-22.04 78.8-52.12 107.36-20.96-24.48-32.52-50.6-33.96-78.24-1.44-27.4 6.28-55.72 20.92-85.04l-32.36 10.08C101.52 124.72 117.8 94.72 148 90z" fill="#4A2A86"/>
  <path d="M128 128c-25.2 27.28-36.76 59.12-32.4 92 3.64 25.76 16.28 49.28 36 69.6-44.16-14.08-75.4-51.04-80.4-88.96C46.44 154.16 74.04 130.16 128 128z" fill="#6A3FB4"/>
  <path d="M52 148c43.2-79.2 164.4-84 216 24-45.6 113.2-172.8 112.4-216-24z" fill="#BFA1FF" stroke="#BFA1FF" stroke-width="10" stroke-linecap="round" stroke-linejoin="round"/>
  <path d="M94 210l118-28" fill="none" stroke="#F5D680" stroke-width="6" stroke-linecap="round" stroke-linejoin="round"/>
  <path d="M214 176l18 14-24 8z" fill="#F5D680"/>
  <path d="M168 82c10.32 4.4 19.72 10.72 26.96 18.8 4.16 4.52 7.44 9.24 9.2 14.44 1.36 4.12 1.52 8.64.48 13.56l-20.28-6.36c1.8-8.12.72-15.16-3.24-21.04-4.12-6.12-10.56-10.28-18.36-12.32z" fill="#201138"/>
</svg>
